<svg xmlns="http://www.w3.org/2000/svg" viewBox="0 0 410.31 115.86"><defs><style>.cls-1{fill:#3cb46d;}</style></defs><title>Asset 1</title><g id="Layer_2" data-name="Layer 2"><g id="Layer_1-2" data-name="Layer 1"><path class="cls-1" d="M142.79,56a8.41,8.41,0,0,1-8.58,8.36h-1.1a10.32,10.32,0,0,1-8.36-4.07l-.28-.33,2.31-4,.61.94c1.26,2,3.85,2.8,6.71,2.86h.11a3.81,3.81,0,0,0,4-3.79c0-1.92-1.15-3-4.07-3.46-4.29-.17-9.4-2.58-9.4-7.7a8,8,0,0,1,7.75-8H133a9.8,9.8,0,0,1,7.31,3.24l.33.39-2.47,4.4-.66-.77A6,6,0,0,0,133,41.72c-1.82,0-3.52,1-3.52,3.13,0,1.1.5,2.69,4.89,2.86C139.5,48.32,142.79,51.57,142.79,56Z"/><path class="cls-1" d="M195.86,64.33h-4.95V48.38c-1.15-3.74-4.18-6.27-7.92-6.27a8.36,8.36,0,0,0-8.08,6.54V64.33h-5.06V64L170,48.38a8.11,8.11,0,0,0-15.56-.83V64.44H149.4V36.89h5.06v2.75a12.09,12.09,0,0,1,7.7-2.75,12.59,12.59,0,0,1,10.28,5.77A12.77,12.77,0,0,1,183,36.89c4.67,0,8.58,2.75,10.94,6.71a14.78,14.78,0,0,1,2,6.16Z"/><path class="cls-1" d="M229.14,36.89V64.44h-5V61.36a12.71,12.71,0,0,1-8.36,3.08,13.65,13.65,0,0,1,0-27.28,12.71,12.71,0,0,1,8.36,3.08V36.89Zm-5,15.07V49.64a8.64,8.64,0,1,0,0,2.31Z"/><path class="cls-1" d="M240.31,40.3a13.31,13.31,0,0,1,8.52-3.13V42c-4.78,0-8.08,4-8.52,8.63v13.8h-4.95V36.89h4.95Z"/><path class="cls-1" d="M275.18,36.89v5.22H268V64.44h-5.12V42.11h-7.48V36.89h7.48V23.19H268V36.89Z"/><path class="cls-1" d="M286.84,64.44h-5.06V23.25h5.06Z"/><path class="cls-1" d="M319.95,36.89V64.44h-5V61.36a12.71,12.71,0,0,1-8.36,3.08,13.65,13.65,0,0,1,0-27.28,12.71,12.71,0,0,1,8.36,3.08V36.89Zm-5,15.07V49.64a8.64,8.64,0,1,0,0,2.31Z"/><path class="cls-1" d="M352.34,64.38h-5v-16a8.31,8.31,0,0,0-7.92-6.27,8,8,0,0,0-7.53,5.5V64.44h-5V36.94h5v2.64a12.65,12.65,0,0,1,7.53-2.64c6.87,0,12.32,5.77,12.92,12.81Z"/><path class="cls-1" d="M385.34,23.19V64.38h-5V61.19A12.94,12.94,0,0,1,372,64.38c-7.37,0-13.36-6.27-13.36-13.86A13.52,13.52,0,0,1,372,36.83a12.81,12.81,0,0,1,8.41,3V23.19Zm-5,28.49V49.37A8.43,8.43,0,0,0,372,41.78a8.75,8.75,0,0,0,0,17.49A8.42,8.42,0,0,0,380.39,51.68Z"/><path class="cls-1" d="M410.31,56a8.41,8.41,0,0,1-8.58,8.36h-1.1a10.32,10.32,0,0,1-8.36-4.07L392,60l2.31-4,.61.94c1.26,2,3.85,2.8,6.71,2.86h.11a3.81,3.81,0,0,0,4-3.79c0-1.92-1.15-3-4.07-3.46-4.29-.17-9.4-2.58-9.4-7.7a8,8,0,0,1,7.75-8h.55a9.8,9.8,0,0,1,7.31,3.24l.33.39-2.47,4.4-.66-.77a6,6,0,0,0-4.51-2.36c-1.82,0-3.52,1-3.52,3.13,0,1.1.5,2.69,4.89,2.86C407,48.32,410.31,51.57,410.31,56Z"/><path class="cls-1" d="M83.75,17.67,58.16,2.9a21.77,21.77,0,0,0-21.71,0L10.85,17.67A21.77,21.77,0,0,0,0,36.48V66a21.77,21.77,0,0,0,10.85,18.8L36.45,99.6a21.63,21.63,0,0,0,7.21,2.58v13.68h8v-13.8a21.62,21.62,0,0,0,6.5-2.46L83.75,84.83A21.77,21.77,0,0,0,94.6,66V36.48A21.77,21.77,0,0,0,83.75,17.67ZM40.45,9.83a13.75,13.75,0,0,1,13.71,0l5.33,3.08-20.17,13h0a4,4,0,1,0,4.33,6.71h0L67.28,17.4l12.47,7.2a13.62,13.62,0,0,1,2.52,1.88l-24.79,16a14.68,14.68,0,0,0-20.36,0l-24.79-16a13.61,13.61,0,0,1,2.52-1.88Zm6.85,50a6.75,6.75,0,1,1,6.75-6.75A6.76,6.76,0,0,1,47.3,59.86ZM40.45,92.68,14.85,77.9A13.75,13.75,0,0,1,8,66V62.66L30.07,76.89h0a4,4,0,1,0,4.33-6.71h0L8,53.14V36.48a13.62,13.62,0,0,1,.35-3l24.7,15.92a14.66,14.66,0,0,0,10.6,18V94A13.63,13.63,0,0,1,40.45,92.68ZM86.6,66A13.75,13.75,0,0,1,79.75,77.9L54.16,92.68a13.62,13.62,0,0,1-2.5,1.12V67.2a14.68,14.68,0,0,0,9.9-17.85l24.7-15.92a13.61,13.61,0,0,1,.35,3Z"/><path class="cls-1" d="M124.06,114.94V91.75h2.79v1.74a7.48,7.48,0,0,1,4.81-1.74,7.77,7.77,0,0,1,0,15.53,7.48,7.48,0,0,1-4.81-1.74v9.39Zm2.79-16.06v1.27a4.82,4.82,0,1,0,4.81-5.58A4.94,4.94,0,0,0,126.85,98.88Z"/><path class="cls-1" d="M145.73,107.25h-2.85V84h2.85Z"/><path class="cls-1" d="M164.4,91.72v15.53h-2.82v-1.74a7.17,7.17,0,0,1-4.71,1.74,7.69,7.69,0,0,1,0-15.38,7.17,7.17,0,0,1,4.71,1.74V91.72Zm-2.82,8.5v-1.3a4.87,4.87,0,1,0,0,1.3Z"/><path class="cls-1" d="M179.37,91.72v2.95h-4.06v12.59h-2.88V94.66h-4.22V91.72h4.22V84h2.88v7.72Z"/><path class="cls-1" d="M191.27,91.75v2.79h-5.15l0,12.74H183.4l0-12.74H181V91.75h2.33v0a7.63,7.63,0,0,1,7.88-7.66V87a4.86,4.86,0,0,0-5.12,4.78Z"/><path class="cls-1" d="M209.69,99.5a7.52,7.52,0,1,1-7.5-7.72A7.6,7.6,0,0,1,209.69,99.5Zm-2.73,0a4.79,4.79,0,1,0-4.77,4.9A4.84,4.84,0,0,0,207,99.5Z"/><path class="cls-1" d="M216,93.64a7.5,7.5,0,0,1,4.81-1.77V94.6c-2.7,0-4.56,2.23-4.81,4.87v7.78h-2.79V91.72H216Z"/><path class="cls-1" d="M250.92,107.19h-2.79v-9a4.62,4.62,0,0,0-9,.16v8.84h-2.85V107l.09-8.81a4.57,4.57,0,0,0-8.77-.46v9.52h-2.85V91.72h2.85v1.55a6.82,6.82,0,0,1,4.34-1.55,7.1,7.1,0,0,1,5.8,3.26,7,7,0,0,1,12.12.53A8.34,8.34,0,0,1,250.95,99Z"/></g></g></svg>